HIERARCHY
ROOT mixamorig:Hips
{
	OFFSET 0.000000 104.274902 0.000000
	CHANNELS 6 Xposition Yposition Zposition Xrotation Yrotation Zrotation
	JOINT mixamorig:Spine
	{
		OFFSET 0.000000 10.181549 0.131524
		CHANNELS 6 Xposition Yposition Zposition Xrotation Yrotation Zrotation
		JOINT mixamorig:Spine1
		{
			OFFSET 0.000000 9.893990 -1.470706
			CHANNELS 3 Xrotation Yrotation Zrotation
			JOINT mixamorig:Spine2
			{
				OFFSET 0.000000 9.220787 -1.370637
				CHANNELS 3 Xrotation Yrotation Zrotation
				JOINT mixamorig:Neck
				{
					OFFSET 0.000000 16.740372 -2.049022
					CHANNELS 6 Xposition Yposition Zposition Xrotation Yrotation Zrotation
					JOINT mixamorig:Head
					{
						OFFSET 0.000000 9.617859 1.684976
						CHANNELS 6 Xposition Yposition Zposition Xrotation Yrotation Zrotation
						JOINT mixamorig:HeadTop_End
						{
							OFFSET 0.000000 22.037384 7.501072
							CHANNELS 6 Xposition Yposition Zposition Xrotation Yrotation Zrotation
							End Site
							{
								OFFSET 0.000000 23.106567 -2.828246
							}
						}
					}
				}
				JOINT mixamorig:RightShoulder
				{
					OFFSET -4.570000 11.014877 -2.160840
					CHANNELS 6 Xposition Yposition Zposition Xrotation Yrotation Zrotation
					JOINT mixamorig:RightArm
					{
						OFFSET -10.592867 -0.524796 -2.232105
						CHANNELS 3 Xrotation Yrotation Zrotation
						JOINT mixamorig:RightForeArm
						{
							OFFSET -27.841497 0.000000 -0.000002
							CHANNELS 3 Xrotation Yrotation Zrotation
							JOINT mixamorig:RightHand
							{
								OFFSET -28.328812 0.000000 -0.000001
								CHANNELS 3 Xrotation Yrotation Zrotation
								JOINT mixamorig:RightHandThumb1
								{
									OFFSET -2.464798 -1.573990 2.681911
									CHANNELS 6 Xposition Yposition Zposition Xrotation Yrotation Zrotation
									JOINT mixamorig:RightHandThumb2
									{
										OFFSET -3.244781 -1.873383 1.873376
										CHANNELS 3 Xrotation Yrotation Zrotation
										JOINT mixamorig:RightHandThumb3
										{
											OFFSET -2.646263 -1.527817 1.527818
											CHANNELS 6 Xposition Yposition Zposition Xrotation Yrotation Zrotation
											JOINT mixamorig:RightHandThumb4
											{
												OFFSET -1.994591 -1.151581 1.151575
												CHANNELS 6 Xposition Yposition Zposition Xrotation Yrotation Zrotation
												End Site
												{
													OFFSET -1.860176 -1.142715 1.365483
												}
											}
										}
									}
								}
								JOINT mixamorig:RightHandIndex1
								{
									OFFSET -9.108299 -0.517883 2.259803
									CHANNELS 6 Xposition Yposition Zposition Xrotation Yrotation Zrotation
									JOINT mixamorig:RightHandIndex2
									{
										OFFSET -3.699997 0.000000 0.000000
										CHANNELS 3 Xrotation Yrotation Zrotation
										JOINT mixamorig:RightHandIndex3
										{
											OFFSET -2.850006 0.000000 0.000000
											CHANNELS 3 Xrotation Yrotation Zrotation
											JOINT mixamorig:RightHandIndex4
											{
												OFFSET -2.772194 0.000000 0.000000
												CHANNELS 3 Xrotation Yrotation Zrotation
												End Site
												{
													OFFSET -2.772202 0.000000 -0.000484
												}
											}
										}
									}
								}
								JOINT mixamorig:RightHandMiddle1
								{
									OFFSET -9.532501 0.000000 -0.000000
									CHANNELS 6 Xposition Yposition Zposition Xrotation Yrotation Zrotation
									JOINT mixamorig:RightHandMiddle2
									{
										OFFSET -3.699997 0.000000 0.000000
										CHANNELS 3 Xrotation Yrotation Zrotation
										JOINT mixamorig:RightHandMiddle3
										{
											OFFSET -2.949997 0.000000 0.000000
											CHANNELS 3 Xrotation Yrotation Zrotation
											JOINT mixamorig:RightHandMiddle4
											{
												OFFSET -2.946594 0.000000 0.000000
												CHANNELS 3 Xrotation Yrotation Zrotation
												End Site
												{
													OFFSET -2.946602 0.000000 -0.000982
												}
											}
										}
									}
								}
								JOINT mixamorig:RightHandRing1
								{
									OFFSET -9.103600 -0.043106 -1.865100
									CHANNELS 6 Xposition Yposition Zposition Xrotation Yrotation Zrotation
									JOINT mixamorig:RightHandRing2
									{
										OFFSET -3.379303 0.000000 0.000000
										CHANNELS 3 Xrotation Yrotation Zrotation
										JOINT mixamorig:RightHandRing3
										{
											OFFSET -2.889694 0.000000 0.000000
											CHANNELS 3 Xrotation Yrotation Zrotation
											JOINT mixamorig:RightHandRing4
											{
												OFFSET -2.638802 0.000000 0.000000
												CHANNELS 3 Xrotation Yrotation Zrotation
												End Site
												{
													OFFSET -2.638802 0.000000 0.004218
												}
											}
										}
									}
								}
								JOINT mixamorig:RightHandPinky1
								{
									OFFSET -8.076698 -0.486725 -3.806299
									CHANNELS 6 Xposition Yposition Zposition Xrotation Yrotation Zrotation
									JOINT mixamorig:RightHandPinky2
									{
										OFFSET -3.600006 0.000000 0.000000
										CHANNELS 3 Xrotation Yrotation Zrotation
										JOINT mixamorig:RightHandPinky3
										{
											OFFSET -2.099998 0.000000 0.000000
											CHANNELS 3 Xrotation Yrotation Zrotation
											JOINT mixamorig:RightHandPinky4
											{
												OFFSET -2.115791 0.000000 0.000000
												CHANNELS 3 Xrotation Yrotation Zrotation
												End Site
												{
													OFFSET -2.115799 0.000000 0.000174
												}
											}
										}
									}
								}
							}
						}
					}
				}
				JOINT mixamorig:LeftShoulder
				{
					OFFSET 4.570400 11.014679 -2.160816
					CHANNELS 6 Xposition Yposition Zposition Xrotation Yrotation Zrotation
					JOINT mixamorig:LeftArm
					{
						OFFSET 10.592373 -0.524597 -2.232116
						CHANNELS 3 Xrotation Yrotation Zrotation
						JOINT mixamorig:LeftForeArm
						{
							OFFSET 27.841488 0.000000 0.000001
							CHANNELS 3 Xrotation Yrotation Zrotation
							JOINT mixamorig:LeftHand
							{
								OFFSET 28.328808 0.000000 -0.000000
								CHANNELS 3 Xrotation Yrotation Zrotation
								JOINT mixamorig:LeftHandThumb1
								{
									OFFSET 2.466103 -1.576202 2.681698
									CHANNELS 6 Xposition Yposition Zposition Xrotation Yrotation Zrotation
									JOINT mixamorig:LeftHandThumb2
									{
										OFFSET 3.243317 -1.872528 1.872530
										CHANNELS 3 Xrotation Yrotation Zrotation
										JOINT mixamorig:LeftHandThumb3
										{
											OFFSET 2.647881 -1.528763 1.528754
											CHANNELS 6 Xposition Yposition Zposition Xrotation Yrotation Zrotation
											JOINT mixamorig:LeftHandThumb4
											{
												OFFSET 1.998924 -1.154083 1.154080
												CHANNELS 6 Xposition Yposition Zposition Xrotation Yrotation Zrotation
												End Site
												{
													OFFSET 1.884041 -1.149155 1.337651
												}
											}
										}
									}
								}
								JOINT mixamorig:LeftHandIndex1
								{
									OFFSET 9.109299 -0.518005 2.259900
									CHANNELS 6 Xposition Yposition Zposition Xrotation Yrotation Zrotation
									JOINT mixamorig:LeftHandIndex2
									{
										OFFSET 3.699997 0.000000 0.000000
										CHANNELS 3 Xrotation Yrotation Zrotation
										JOINT mixamorig:LeftHandIndex3
										{
											OFFSET 2.850006 0.000000 0.000000
											CHANNELS 3 Xrotation Yrotation Zrotation
											JOINT mixamorig:LeftHandIndex4
											{
												OFFSET 2.774895 0.000000 0.000000
												CHANNELS 3 Xrotation Yrotation Zrotation
												End Site
												{
													OFFSET 2.774902 0.000000 -0.000072
												}
											}
										}
									}
								}
								JOINT mixamorig:LeftHandMiddle1
								{
									OFFSET 9.533401 0.000000 0.000000
									CHANNELS 6 Xposition Yposition Zposition Xrotation Yrotation Zrotation
									JOINT mixamorig:LeftHandMiddle2
									{
										OFFSET 3.699997 0.000000 0.000000
										CHANNELS 3 Xrotation Yrotation Zrotation
										JOINT mixamorig:LeftHandMiddle3
										{
											OFFSET 2.949997 0.000000 0.000000
											CHANNELS 3 Xrotation Yrotation Zrotation
											JOINT mixamorig:LeftHandMiddle4
											{
												OFFSET 2.952896 0.000000 0.000000
												CHANNELS 3 Xrotation Yrotation Zrotation
												End Site
												{
													OFFSET 2.952904 0.000000 0.000165
												}
											}
										}
									}
								}
								JOINT mixamorig:LeftHandRing1
								{
									OFFSET 9.104500 -0.042999 -1.865101
									CHANNELS 6 Xposition Yposition Zposition Xrotation Yrotation Zrotation
									JOINT mixamorig:LeftHandRing2
									{
										OFFSET 3.149994 0.000000 0.000000
										CHANNELS 3 Xrotation Yrotation Zrotation
										JOINT mixamorig:LeftHandRing3
										{
											OFFSET 2.950005 0.000000 0.000000
											CHANNELS 3 Xrotation Yrotation Zrotation
											JOINT mixamorig:LeftHandRing4
											{
												OFFSET 2.644302 0.000000 0.000000
												CHANNELS 3 Xrotation Yrotation Zrotation
												End Site
												{
													OFFSET 2.644302 0.000000 0.000083
												}
											}
										}
									}
								}
								JOINT mixamorig:LeftHandPinky1
								{
									OFFSET 8.077805 -0.486893 -3.806302
									CHANNELS 6 Xposition Yposition Zposition Xrotation Yrotation Zrotation
									JOINT mixamorig:LeftHandPinky2
									{
										OFFSET 3.600006 0.000000 0.000000
										CHANNELS 3 Xrotation Yrotation Zrotation
										JOINT mixamorig:LeftHandPinky3
										{
											OFFSET 2.099998 0.000000 0.000000
											CHANNELS 3 Xrotation Yrotation Zrotation
											JOINT mixamorig:LeftHandPinky4
											{
												OFFSET 2.125496 0.000000 0.000000
												CHANNELS 3 Xrotation Yrotation Zrotation
												End Site
												{
													OFFSET 2.125504 0.000000 -0.001254
												}
											}
										}
									}
								}
							}
						}
					}
				}
			}
		}
	}
	JOINT mixamorig:RightUpLeg
	{
		OFFSET -8.207800 -6.751701 -1.599544
		CHANNELS 6 Xposition Yposition Zposition Xrotation Yrotation Zrotation
		JOINT mixamorig:RightLeg
		{
			OFFSET 0.000004 -44.370152 0.345934
			CHANNELS 3 Xrotation Yrotation Zrotation
			JOINT mixamorig:RightFoot
			{
				OFFSET 0.000004 -44.423664 -3.043535
				CHANNELS 3 Xrotation Yrotation Zrotation
				JOINT mixamorig:RightToeBase
				{
					OFFSET 0.000001 -8.728691 10.710592
					CHANNELS 3 Xrotation Yrotation Zrotation
					JOINT mixamorig:RightToe_End
					{
						OFFSET 0.000000 -0.000665 9.278101
						CHANNELS 3 Xrotation Yrotation Zrotation
						End Site
						{
							OFFSET 0.000000 -0.000665 9.278103
						}
					}
				}
			}
		}
	}
	JOINT mixamorig:LeftUpLeg
	{
		OFFSET 8.207800 -6.751701 -1.599544
		CHANNELS 6 Xposition Yposition Zposition Xrotation Yrotation Zrotation
		JOINT mixamorig:LeftLeg
		{
			OFFSET 0.000004 -44.370037 0.346940
			CHANNELS 3 Xrotation Yrotation Zrotation
			JOINT mixamorig:LeftFoot
			{
				OFFSET 0.000004 -44.423611 -3.044388
				CHANNELS 3 Xrotation Yrotation Zrotation
				JOINT mixamorig:LeftToeBase
				{
					OFFSET 0.000001 -8.728690 10.710592
					CHANNELS 3 Xrotation Yrotation Zrotation
					JOINT mixamorig:LeftToe_End
					{
						OFFSET 0.000000 -0.000680 9.278101
						CHANNELS 3 Xrotation Yrotation Zrotation
						End Site
						{
							OFFSET 0.000000 -0.000680 9.278101
						}
					}
				}
			}
		}
	}
}
MOTION
Frames: 4
Frame Time: 0.033333
-8.356061 103.234390 8.351478 1.782661 -0.186855 -0.408881 -0.000001 10.181555 0.131524 0.004111 0.187822 0.237801 0.007238 0.380737 0.514509 0.007239 0.380737 0.514509 -0.000001 16.740377 -2.049023 13.395380 2.638848 -2.896829 0.000001 9.617836 1.684980 -10.351998 -5.666135 3.003431 0.000000 22.037369 7.501074 -0.000000 0.000000 -0.000000 -4.570001 11.014890 -2.160842 4.202799 5.112138 2.974250 18.751159 35.056113 61.971085 -9.517567 26.751691 -0.404466 -0.081277 -4.836805 -2.689868 -2.464801 -1.574010 2.681913 -19.621621 -1.996844 -9.786141 7.317422 -17.694700 4.011959 -2.646270 -1.527816 1.527817 -0.000007 0.000010 -0.000003 -1.994586 -1.151586 1.151572 0.000003 -0.000002 -0.000005 -9.108304 -0.517877 2.259802 -11.309903 -1.253642 21.418307 0.122048 -0.696233 17.177065 0.000005 0.000000 0.000002 0.000002 -0.000001 -0.000001 -9.532493 0.000013 0.000001 -5.108138 1.023765 16.930010 -0.530122 1.846893 31.391044 0.000001 0.000001 -0.000000 0.000001 0.000001 0.000000 -9.103601 -0.043110 -1.865096 -14.428380 -3.660103 20.333275 -1.585690 3.972385 39.979245 0.000002 0.000000 0.000003 0.000003 -0.000001 0.000003 -8.076702 -0.486702 -3.806296 -3.449047 5.908345 27.349484 -1.729085 5.621366 34.439364 -0.000002 -0.000000 0.000000 -0.000000 0.000001 0.000003 4.570401 11.014705 -2.160818 2.412258 -0.627226 -4.046552 18.826529 -36.726545 -64.798449 -3.287239 -25.471271 -0.424757 -9.934813 -3.940762 8.705092 2.466072 -1.576209 2.681704 2.153288 2.328753 12.225674 2.018019 18.442952 -6.232607 2.647897 -1.528757 1.528760 -0.000010 0.000009 -0.000007 1.998929 -1.154066 1.154090 0.000001 0.000005 -0.000002 9.109271 -0.518021 2.259909 -5.942283 8.665937 -18.348523 0.168472 0.516613 -29.758994 0.000001 0.000000 -0.000004 0.000003 -0.000000 -0.000002 9.533394 0.000010 0.000003 -5.532014 7.027351 -27.856218 -0.285016 -1.577388 -19.685162 0.000001 -0.000001 -0.000002 0.000002 0.000000 -0.000001 9.104492 -0.043003 -1.865094 -7.787587 4.220272 -25.419833 -0.770197 -2.644302 -32.830602 -0.000000 0.000000 -0.000001 0.000000 0.000002 -0.000003 8.077781 -0.486896 -3.806297 -1.631029 0.277096 -20.581757 -2.347097 -5.096951 -49.519370 0.000003 0.000002 0.000003 -0.000003 0.000000 0.000001 -8.207800 -6.751709 -1.599543 -10.460784 -13.770151 -4.558146 12.196554 0.058940 0.237258 -3.573465 -1.934626 2.613355 -0.081745 -0.109882 0.141478 -0.000000 0.000001 0.000000 8.207799 -6.751704 -1.599544 -4.800634 -6.785652 4.222794 10.298780 -0.273959 -0.116249 -6.250173 14.154615 -4.137554 -0.406517 -0.026853 0.063540 0.000000 -0.000000 0.000000 
-8.345469 103.183159 8.417751 1.666867 -0.142750 -0.463476 -0.000001 10.181558 0.131525 -0.006984 0.188486 0.238967 -0.014882 0.382222 0.500718 -0.014882 0.382223 0.500718 -0.000001 16.740360 -2.049017 13.362685 2.640999 -2.882607 0.000001 9.617820 1.684981 -10.380842 -5.669298 3.020130 -0.000001 22.037338 7.501073 -0.000000 0.000000 -0.000000 -4.570001 11.014853 -2.160836 4.199196 5.134198 2.984037 18.943152 35.216903 61.957705 -9.515302 27.008347 -0.409170 -0.114869 -4.997341 -2.498462 -2.464783 -1.573982 2.681908 -19.652368 -1.912484 -9.781154 7.273043 -17.605825 4.005717 -2.646270 -1.527828 1.527816 -0.000004 0.000010 -0.000007 -1.994579 -1.151588 1.151571 -0.000000 -0.000001 0.000001 -9.108299 -0.517869 2.259798 -11.303038 -1.165671 21.346127 0.122336 -0.697471 17.210214 0.000003 -0.000000 0.000003 0.000001 -0.000000 -0.000003 -9.532479 0.000002 -0.000003 -5.118037 1.094506 16.956430 -0.530676 1.847461 31.402888 -0.000001 0.000000 0.000004 -0.000004 0.000003 0.000004 -9.103587 -0.043104 -1.865098 -14.406308 -3.755635 20.250355 -1.589206 3.976566 40.029816 0.000001 0.000000 0.000001 0.000000 -0.000000 -0.000000 -8.076694 -0.486714 -3.806299 -3.435884 5.867138 27.406785 -1.738120 5.634537 34.532805 -0.000002 -0.000000 -0.000001 -0.000002 -0.000001 -0.000000 4.570399 11.014663 -2.160811 2.410078 -0.654837 -4.006542 18.838536 -36.673850 -64.565669 -3.288813 -25.744562 -0.429490 -9.868411 -3.826282 8.581321 2.466097 -1.576201 2.681701 2.141823 2.285887 12.304733 1.996089 18.391029 -6.218286 2.647877 -1.528761 1.528760 -0.000013 0.000009 -0.000005 1.998914 -1.154084 1.154080 0.000001 0.000001 -0.000002 9.109297 -0.518023 2.259902 -5.946987 8.661388 -18.304390 0.167903 0.516063 -29.714697 0.000001 -0.000001 -0.000007 -0.000000 -0.000002 -0.000002 9.533417 -0.000001 -0.000005 -5.528380 7.111818 -27.803965 -0.284902 -1.577028 -19.680519 0.000000 -0.000000 -0.000003 -0.000001 -0.000001 -0.000003 9.104491 -0.043002 -1.865103 -7.773735 4.268230 -25.434994 -0.772696 -2.648167 -32.884864 -0.000002 0.000000 -0.000002 -0.000003 0.000001 -0.000003 8.077802 -0.486903 -3.806302 -1.643182 0.265184 -20.752246 -2.346938 -5.096784 -49.517383 -0.000000 -0.000001 0.000003 -0.000004 -0.000002 0.000001 -8.207800 -6.751698 -1.599542 -10.503440 -13.940563 -4.594385 12.612521 0.063057 0.251706 -3.833190 -1.808398 2.620589 -0.085648 -0.102476 0.148163 -0.000000 0.000001 0.000000 8.207798 -6.751685 -1.599543 -4.926138 -6.830342 4.252561 10.876856 -0.267976 -0.131393 -6.584793 14.133743 -4.128371 -0.401450 -0.035372 0.011323 0.000000 0.000000 0.000000 
-8.340551 103.122467 8.494823 1.523037 -0.091703 -0.534737 -0.000002 10.181544 0.131524 -0.021201 0.190912 0.246904 -0.043248 0.387380 0.495929 -0.043251 0.387380 0.495929 0.000001 16.740372 -2.049019 13.337881 2.642250 -2.875176 0.000001 9.617842 1.684980 -10.400140 -5.666642 3.018146 0.000000 22.037399 7.501070 0.000000 0.000000 -0.000000 -4.570000 11.014855 -2.160838 4.199096 5.148574 2.956228 19.155474 35.378399 61.887518 -9.512831 27.278865 -0.414234 -0.256867 -5.144402 -2.288187 -2.464802 -1.573984 2.681909 -19.788793 -1.650796 -9.544397 7.278558 -17.609693 4.017247 -2.646261 -1.527818 1.527822 -0.000005 0.000012 -0.000010 -1.994571 -1.151582 1.151567 0.000002 0.000001 0.000001 -9.108303 -0.517874 2.259802 -11.299041 -1.055435 21.392089 0.121167 -0.694596 17.129160 0.000003 -0.000001 0.000003 0.000003 -0.000000 0.000001 -9.532486 0.000008 -0.000002 -5.152717 1.235127 17.174471 -0.526882 1.840857 31.279094 -0.000000 0.000003 0.000003 -0.000002 0.000003 0.000002 -9.103599 -0.043107 -1.865100 -14.369586 -3.947685 20.245485 -1.587838 3.974967 40.010466 0.000001 -0.000002 -0.000001 0.000001 -0.000001 -0.000001 -8.076708 -0.486708 -3.806303 -3.500359 5.905357 27.667884 -1.726309 5.617895 34.414516 -0.000001 -0.000000 0.000000 -0.000002 0.000002 0.000002 4.570400 11.014644 -2.160814 2.408110 -0.678985 -3.939369 18.932132 -36.726562 -64.317241 -3.290993 -26.090926 -0.435640 -10.504542 -3.509796 8.495909 2.466100 -1.576206 2.681702 1.888898 1.156069 12.696178 1.955831 18.288738 -6.190745 2.647886 -1.528759 1.528755 -0.000014 0.000011 -0.000006 1.998914 -1.154082 1.154082 0.000001 0.000003 -0.000002 9.109305 -0.518003 2.259899 -5.925397 8.809318 -18.671698 0.167770 0.516075 -29.712419 -0.000002 -0.000001 -0.000007 -0.000002 -0.000000 -0.000002 9.533419 0.000005 -0.000002 -5.550211 6.765043 -27.791292 -0.280740 -1.565272 -19.527927 -0.000001 -0.000001 -0.000004 -0.000003 -0.000002 -0.000003 9.104505 -0.042997 -1.865102 -7.751618 4.329960 -25.059624 -0.763898 -2.634639 -32.694825 -0.000001 0.000001 -0.000000 -0.000001 0.000001 -0.000000 8.077806 -0.486903 -3.806303 -1.732140 0.089131 -21.442694 -2.343483 -5.093911 -49.478785 0.000002 0.000002 0.000004 -0.000000 -0.000000 0.000001 -8.207801 -6.751717 -1.599543 -10.536421 -14.147166 -4.623756 13.086815 0.067631 0.267223 -4.131793 -1.654741 2.624701 -0.091198 -0.093969 0.157808 0.000000 -0.000001 0.000000 8.207799 -6.751710 -1.599543 -5.055746 -6.862180 4.303676 11.537231 -0.264816 -0.149021 -6.968284 14.089994 -4.123964 -0.398490 -0.043181 -0.044583 -0.000000 0.000000 0.000000 
-8.343204 103.053413 8.584504 1.356644 -0.044081 -0.609145 0.000001 10.181546 0.131525 -0.035299 0.192102 0.259371 -0.071381 0.390266 0.499340 -0.071384 0.390266 0.499340 -0.000000 16.740356 -2.049020 13.300495 2.645381 -2.870306 0.000002 9.617867 1.684974 -10.435267 -5.660060 3.002978 -0.000000 22.037399 7.501075 -0.000000 0.000000 0.000000 -4.570001 11.014878 -2.160839 4.198613 5.189705 2.880894 19.297764 35.493628 61.758857 -9.511126 27.466694 -0.417737 -0.536111 -5.061508 -2.278330 -2.464798 -1.573995 2.681902 -20.061819 -1.189852 -8.993765 7.271276 -17.590295 4.024085 -2.646273 -1.527815 1.527816 -0.000003 0.000009 -0.000009 -1.994594 -1.151581 1.151569 0.000002 0.000005 0.000001 -9.108304 -0.517878 2.259802 -11.293361 -0.886301 21.507721 0.118054 -0.686457 16.900144 0.000003 0.000000 0.000004 0.000003 -0.000001 0.000000 -9.532506 0.000012 -0.000000 -5.200580 1.401502 17.493919 -0.515827 1.822083 30.926065 0.000004 0.000003 0.000003 0.000002 0.000004 0.000004 -9.103612 -0.043104 -1.865099 -14.326448 -4.199295 20.387592 -1.580677 3.966504 39.907603 -0.000001 0.000002 0.000001 -0.000001 0.000001 0.000001 -8.076722 -0.486712 -3.806302 -3.668797 6.064658 28.135754 -1.706388 5.589397 34.212540 0.000001 0.000003 0.000003 0.000002 0.000004 0.000002 4.570400 11.014686 -2.160813 2.406181 -0.694811 -3.854951 19.038355 -36.792880 -64.133919 -3.293488 -26.422802 -0.441717 -11.191960 -3.753675 8.653297 2.466094 -1.576198 2.681701 1.056886 -1.737738 12.642488 1.748174 17.754788 -6.048516 2.647880 -1.528764 1.528757 -0.000010 0.000009 -0.000000 1.998929 -1.154083 1.154086 0.000002 0.000001 -0.000002 9.109283 -0.518006 2.259903 -5.877248 8.875302 -19.290423 0.167750 0.516347 -29.728924 -0.000002 0.000000 -0.000004 0.000000 0.000000 -0.000001 9.533407 0.000012 0.000001 -5.614450 5.691983 -27.889571 -0.273295 -1.544060 -19.252971 0.000001 0.000001 -0.000002 0.000001 0.000001 0.000001 9.104502 -0.043006 -1.865101 -7.759502 4.260880 -23.948627 -0.740942 -2.598805 -32.194271 -0.000003 -0.000002 -0.000001 -0.000001 -0.000002 -0.000001 8.077802 -0.486896 -3.806301 -1.811661 -0.070471 -21.989946 -2.339048 -5.090205 -49.429130 0.000001 0.000001 0.000003 -0.000004 -0.000001 0.000001 -8.207800 -6.751702 -1.599541 -10.566925 -14.358019 -4.656058 13.621731 0.076601 0.284932 -4.471327 -1.495559 2.625273 -0.095584 -0.085604 0.165553 0.000000 -0.000000 0.000000 8.207801 -6.751706 -1.599541 -5.173485 -6.872927 4.364893 12.240892 -0.259633 -0.168318 -7.384213 14.023042 -4.124490 -0.399129 -0.049997 -0.097240 -0.000000 -0.000000 0.000000 
